<svg width="3" height="3" viewBox="0 0 3 3" fill="none" xmlns="http://www.w3.org/2000/svg">
<path d="M2.97661 1.23304C3.02862 1.52455 2.99316 1.82493 2.87462 2.0963C2.75607 2.36766 2.55979 2.59784 2.31053 2.75785C2.06128 2.91786 1.7701 3.0005 1.47392 2.99537C1.17773 2.99023 0.889777 2.89757 0.646219 2.72902C0.402662 2.56047 0.21444 2.32359 0.105376 2.04828C-0.00368814 1.77298 -0.0287776 1.47157 0.0333107 1.18203C0.0953989 0.892503 0.241947 0.627809 0.454319 0.421374C0.66669 0.21494 0.935463 0.0759891 1.22673 0.0220383C1.61898 -0.0454911 2.02202 0.0435654 2.34927 0.270029C2.67651 0.496492 2.90177 0.842281 2.97661 1.23304Z" fill="white"/>
</svg>
