<svg width="2" height="2" viewBox="0 0 2 2" fill="none" xmlns="http://www.w3.org/2000/svg">
<path d="M0.505659 1.85871C0.390424 1.79553 0.289185 1.70962 0.207995 1.60616C0.126806 1.50269 0.0673993 1.38381 0.0333172 1.2567C-0.000764964 1.12959 -0.00881096 0.996875 0.00969696 0.866569C0.0282049 0.736264 0.0728478 0.611064 0.140968 0.498526C0.206157 0.385221 0.293023 0.285877 0.396524 0.206192C0.500026 0.126507 0.618154 0.0680452 0.744211 0.0341124C0.870268 0.000179527 1.00174 -0.00855313 1.13116 0.00843205C1.26058 0.0254172 1.38543 0.0677679 1.49851 0.133085C1.61159 0.198403 1.71071 0.285408 1.79024 0.389114C1.86977 0.492819 1.92815 0.611212 1.96201 0.737517C1.99588 0.863823 2.00456 0.995585 1.98761 1.12526C1.97066 1.25494 1.92839 1.38 1.8632 1.4933C1.80015 1.60877 1.71437 1.71021 1.61111 1.79156C1.50784 1.87291 1.38923 1.93246 1.26237 1.96661C1.13551 2.00076 1.00306 2.00882 0.873009 1.99028C0.74296 1.97173 0.617976 1.92697 0.505659 1.85871Z" fill="#425AC2"/>
</svg>
