<svg width="2" height="2" viewBox="0 0 2 2" fill="none" xmlns="http://www.w3.org/2000/svg">
<path d="M0.99801 0C1.1954 0 1.38833 0.0586502 1.55246 0.168531C1.71659 0.278413 1.84452 0.4346 1.92006 0.617326C1.9956 0.800051 2.01538 1.00112 1.97688 1.1951C1.93837 1.38908 1.84327 1.56726 1.70369 1.70711C1.56411 1.84696 1.38629 1.94222 1.19269 1.9808C0.99909 2.01939 0.798415 1.99957 0.616049 1.92388C0.433683 1.84819 0.277865 1.72003 0.1682 1.55558C0.0585348 1.39113 0 1.19779 0 1.00001C0 0.734793 0.1051 0.480442 0.292267 0.292906C0.479434 0.10537 0.733316 0 0.99801 0Z" fill="#425AC2"/>
</svg>
