<svg width="2" height="2" viewBox="0 0 2 2" fill="none" xmlns="http://www.w3.org/2000/svg">
<path d="M1.11832 0.00829788C0.988034 -0.00868173 0.855669 0.000451354 0.728941 0.0351984C0.602213 0.0699455 0.483676 0.129556 0.380169 0.210639C0.276661 0.291723 0.190243 0.392631 0.126011 0.507473C0.0617805 0.622315 0.0210212 0.748842 0.00603048 0.879628C-0.0227272 1.14235 0.0521138 1.40589 0.214578 1.61411C0.377042 1.82232 0.614253 1.95869 0.875646 1.99411C1.13559 2.02263 1.39627 1.94707 1.60084 1.78386C1.80541 1.62064 1.93729 1.38302 1.96776 1.12278C2.00226 0.862191 1.9322 0.59853 1.77297 0.389605C1.61374 0.180681 1.37831 0.043569 1.11832 0.00829788Z" fill="#425AC2"/>
</svg>
