<svg width="26" height="31" viewBox="0 0 26 31" fill="none" xmlns="http://www.w3.org/2000/svg">
<path d="M1.35286 16.1544C2.06641 17.672 2.77999 19.053 3.46317 20.525C3.75163 21.1624 4.04008 21.815 4.31336 22.4523C3.02289 19.5083 4.31341 22.4523 4.55632 23.1201C5.37968 25.781 7.13034 28.0587 9.49045 29.5394C10.7291 30.2588 12.0986 30.7246 13.5192 30.9096C14.9397 31.0946 16.3828 30.9951 17.7645 30.6169C22.9719 29.1904 27.4051 22.8773 25.2644 17.414C23.6551 13.3014 21.8789 9.26467 19.89 5.27346C17.2636 0.0378467 10.0066 -1.40385 5.19394 1.41883C-0.0893772 4.45397 -1.28879 10.8733 1.35286 16.1089V16.1544Z" fill="#FFC1C1"/>
</svg>
