<svg width="2" height="2" viewBox="0 0 2 2" fill="none" xmlns="http://www.w3.org/2000/svg">
<path d="M1.49325 0.133348C1.60872 0.196653 1.71022 0.282733 1.79157 0.386406C1.87292 0.490078 1.93244 0.60919 1.96659 0.736552C2.00074 0.863914 2.0088 0.996889 1.99026 1.12745C1.97171 1.25801 1.92698 1.38346 1.85873 1.49622C1.72332 1.72171 1.50596 1.88586 1.25231 1.95413C0.998665 2.02241 0.728458 1.98953 0.498504 1.86238C0.385198 1.79694 0.285886 1.70976 0.206201 1.60585C0.126515 1.50194 0.0680223 1.38331 0.0340894 1.25676C0.000156502 1.1302 -0.0085452 0.998212 0.00844003 0.86828C0.0254253 0.738347 0.067776 0.61304 0.133094 0.49951C0.198411 0.385981 0.285386 0.286441 0.389092 0.206599C0.492798 0.126757 0.611159 0.0681795 0.737465 0.0341797C0.863771 0.000179881 0.995565 -0.00857002 1.12524 0.0084487C1.25492 0.0254674 1.37995 0.0679017 1.49325 0.133348Z" fill="#425AC2"/>
</svg>
