<svg width="4" height="4" viewBox="0 0 4 4" fill="none" xmlns="http://www.w3.org/2000/svg">
<path d="M3.99326 2.00002C3.99326 2.39558 3.87619 2.78225 3.6568 3.11115C3.43741 3.44005 3.12559 3.69637 2.76076 3.84774C2.39593 3.99912 1.99443 4.03875 1.60712 3.96158C1.21982 3.8844 0.864091 3.6939 0.584861 3.41419C0.305631 3.13449 0.115399 2.77816 0.0383595 2.39019C-0.0386799 2.00223 0.00088105 1.6001 0.151999 1.23465C0.303117 0.869194 0.559098 0.556845 0.887437 0.337082C1.21578 0.11732 1.6018 0 1.99669 0C2.52622 0 3.03398 0.210716 3.40842 0.585788C3.78285 0.960861 3.99326 1.46958 3.99326 2.00002Z" fill="#425AC2"/>
</svg>
