<svg width="4" height="4" viewBox="0 0 4 4" fill="none" xmlns="http://www.w3.org/2000/svg">
<path d="M3.99315 1.98392C3.99633 2.38085 3.88149 2.76976 3.66333 3.10112C3.44517 3.43249 3.13351 3.69131 2.76803 3.84468C2.40254 3.99805 1.99981 4.03902 1.61101 3.96237C1.22221 3.88571 0.865 3.6949 0.584803 3.41423C0.304606 3.13355 0.114123 2.77573 0.037597 2.38627C-0.0389286 1.9968 0.00192741 1.59333 0.155038 1.22723C0.308149 0.861121 0.566527 0.548929 0.897324 0.330396C1.22812 0.111863 1.61642 -0.00312373 2.01267 6.45492e-05C2.27275 6.45492e-05 2.5303 0.051379 2.77058 0.151079C3.01087 0.250779 3.22911 0.396914 3.41302 0.581135C3.59693 0.765356 3.74286 0.984021 3.84239 1.22472C3.94192 1.46541 3.99315 1.7234 3.99315 1.98392Z" fill="#425AC2"/>
</svg>
