<svg width="24" height="30" viewBox="0 0 24 30" fill="none" xmlns="http://www.w3.org/2000/svg">
<path d="M3.12488 7.71548C2.46611 10.544 1.6138 13.324 0.574034 16.0358L1.64802 13.5158L1.37952 14.1272C0.032981 16.6118 -0.344306 19.5071 0.32047 22.2536C0.686332 23.5889 1.3121 24.839 2.16197 25.9323C3.01184 27.0255 4.06909 27.9404 5.2732 28.6246C6.47731 29.3088 7.80459 29.7489 9.17909 29.9196C10.5536 30.0904 11.9483 29.9884 13.2834 29.6196C14.6107 29.286 15.8555 28.6838 16.9408 27.8503C18.0261 27.0168 18.9288 25.9696 19.5932 24.7735C21.1899 21.0763 22.4869 17.2567 23.4716 13.3518C23.8399 12.0164 23.9414 10.6215 23.7704 9.24682C23.5994 7.87215 23.1592 6.54462 22.4749 5.34001C21.7907 4.1354 20.8757 3.07732 19.7823 2.22616C18.689 1.37501 17.4386 0.747449 16.1026 0.379321C13.4045 -0.364147 10.5213 -0.0057604 8.08753 1.37563C5.65372 2.75702 3.86865 5.04826 3.12488 7.74531V7.71548Z" fill="#FFC1C1"/>
</svg>
