<svg width="7" height="21" viewBox="0 0 7 21" fill="none" xmlns="http://www.w3.org/2000/svg">
<path d="M6.21615 17.9321C6.19612 18.7527 5.8558 19.533 5.26798 20.1062C4.68017 20.6795 3.89138 21.0002 3.07015 21C2.25615 21 1.47553 20.6768 0.899949 20.1014C0.324363 19.5261 0.000958499 18.7457 0.000958499 17.9321V3.14463C-0.00928129 2.73533 0.062615 2.32814 0.212265 1.94702C0.361915 1.5659 0.586291 1.21858 0.872318 0.925521C1.15834 0.632464 1.50015 0.3996 1.87762 0.240648C2.25508 0.0816958 2.66056 -0.000127815 3.07015 1.49863e-07C3.9045 1.49863e-07 4.7047 0.331312 5.29468 0.921044C5.88465 1.51078 6.21615 2.31062 6.21615 3.14463V17.9321Z" fill="#425AC2"/>
</svg>
