<svg width="43" height="43" viewBox="0 0 43 43" fill="none" xmlns="http://www.w3.org/2000/svg">
<path d="M41.2148 29.8884C39.5605 33.8002 36.7866 37.1333 33.2432 39.4668C29.6999 41.8002 25.5459 43.0295 21.3059 42.9995C17.0658 42.9694 12.9296 41.6813 9.4196 39.2978C5.90956 36.9143 3.18298 33.5423 1.58407 29.6074C-0.014848 25.6725 -0.414421 21.3511 0.435811 17.1889C1.28604 13.0266 3.34796 9.21009 6.36125 6.22104C9.37453 3.232 13.2041 1.20447 17.3665 0.394422C21.5289 -0.415624 25.8375 0.0281264 29.7484 1.66965C32.3543 2.76341 34.7189 4.36201 36.7066 6.37376C38.6943 8.3855 40.266 10.7708 41.3314 13.3926C42.3967 16.0145 42.9349 18.8214 42.9149 21.6522C42.8949 24.4829 42.3171 27.2819 41.2148 29.8884Z" fill="#FFC1C1"/>
</svg>
