<svg width="2" height="2" viewBox="0 0 2 2" fill="none" xmlns="http://www.w3.org/2000/svg">
<path d="M1.60514 0.235984C1.50459 0.14915 1.38734 0.0838905 1.26063 0.0442397C1.13392 0.00458897 1.00046 -0.00860739 0.868459 0.00545456C0.73646 0.0195165 0.608719 0.0605932 0.493165 0.126052C0.377611 0.191511 0.276698 0.279957 0.196619 0.386034C0.11654 0.49211 0.0589882 0.613511 0.0275703 0.742736C-0.00384769 0.871962 -0.00845564 1.00628 0.0139617 1.13737C0.036379 1.26847 0.0853492 1.39361 0.15791 1.50499C0.230471 1.61636 0.325072 1.71159 0.435828 1.78491C0.642298 1.9389 0.90046 2.00637 1.15569 1.97301C1.41092 1.93966 1.6432 1.8081 1.80334 1.60619C1.88088 1.50348 1.93727 1.38639 1.9693 1.26167C2.00133 1.13694 2.00836 1.00709 1.98993 0.879636C1.97149 0.752179 1.928 0.629659 1.86195 0.519176C1.7959 0.408694 1.70859 0.312412 1.60514 0.235984Z" fill="#425AC2"/>
</svg>
