<svg width="19" height="22" viewBox="0 0 19 22" fill="none" xmlns="http://www.w3.org/2000/svg">
<path d="M13.0222 20.2716C8.79951 23.816 5.8728 20.6509 2.33448 16.421C1.49217 15.4154 0.855772 14.2534 0.461749 13.0015C0.0677266 11.7495 -0.0762511 10.4321 0.0380024 9.12442C0.152256 7.81673 0.52254 6.54439 1.12768 5.38004C1.73281 4.21569 2.56095 3.18213 3.56484 2.33838C4.56873 1.49463 5.72874 0.857232 6.97855 0.462537C8.22836 0.0678421 9.54351 -0.0763811 10.849 0.0380672C12.1544 0.152515 13.4246 0.523387 14.587 1.12955C15.7493 1.73572 16.7812 2.56528 17.6235 3.57088C21.1618 7.82994 17.2449 16.7565 13.0222 20.2716Z" fill="#FFB3B6"/>
</svg>
