<svg width="12" height="14" viewBox="0 0 12 14" fill="none" xmlns="http://www.w3.org/2000/svg">
<path d="M12 1.8759C11.6858 1.59496 11.3495 1.33994 10.9943 1.1133C10.1508 0.578188 9.20505 0.225627 8.21763 0.0782832C7.23021 -0.0690607 6.22292 -0.00794086 5.26045 0.257692C4.29799 0.523324 3.4016 0.987608 2.62875 1.62077C1.8559 2.25394 1.22368 3.04201 0.772658 3.93438C0.32164 4.82676 0.0617589 5.80372 0.00973294 6.80264C-0.042293 7.80155 0.114674 8.80036 0.470541 9.73493C0.826408 10.6695 1.37336 11.5192 2.07623 12.2295C2.77911 12.9399 3.62239 13.4951 4.55203 13.8597L12 1.8759Z" fill="#425AC2"/>
</svg>
