<svg width="12" height="14" viewBox="0 0 12 14" fill="none" xmlns="http://www.w3.org/2000/svg">
<path d="M0 1.8759C0.311565 1.59178 0.648198 1.33653 1.00575 1.1133C1.8492 0.578188 2.79498 0.225627 3.7824 0.0782832C4.76982 -0.0690607 5.77707 -0.00794086 6.73953 0.257692C7.702 0.523324 8.59841 0.987608 9.37126 1.62077C10.1441 2.25394 10.7763 3.04201 11.2273 3.93438C11.6784 4.82676 11.9382 5.80372 11.9903 6.80264C12.0423 7.80155 11.8853 8.80036 11.5294 9.73493C11.1736 10.6695 10.6267 11.5192 9.92379 12.2295C9.22092 12.9399 8.3776 13.4951 7.44796 13.8597L0 1.8759Z" fill="#FFC1C1"/>
</svg>
