<svg width="2" height="2" viewBox="0 0 2 2" fill="none" xmlns="http://www.w3.org/2000/svg">
<path d="M1.99188 1.11536C2.01436 0.919274 1.97847 0.720918 1.88877 0.545203C1.79906 0.369487 1.65953 0.22424 1.48769 0.127751C1.31586 0.0312632 1.11937 -0.0121393 0.922958 0.00292146C0.72655 0.0179822 0.538981 0.0908616 0.383797 0.212426C0.228614 0.333991 0.112719 0.498773 0.0507426 0.68612C-0.0112338 0.873466 -0.0165581 1.075 0.035434 1.26538C0.0874261 1.45575 0.19443 1.62647 0.342975 1.75609C0.491519 1.88572 0.674975 1.96845 0.870311 1.9939C1.13468 2.02296 1.39995 1.94735 1.60948 1.78321C1.819 1.61908 1.95623 1.37943 1.99188 1.11536Z" fill="#425AC2"/>
</svg>
