<svg width="11" height="11" viewBox="0 0 11 11" fill="none" xmlns="http://www.w3.org/2000/svg">
<path d="M0 5.5C0 6.5878 0.321909 7.65118 0.925068 8.55565C1.52823 9.46012 2.38555 10.1651 3.38856 10.5814C4.39158 10.9976 5.49527 11.1066 6.56007 10.8943C7.62487 10.6821 8.60294 10.1583 9.37062 9.38909C10.1383 8.61991 10.6611 7.6399 10.8729 6.573C11.0847 5.50611 10.976 4.40024 10.5605 3.39525C10.1451 2.39025 9.44151 1.53128 8.53882 0.926934C7.63613 0.322586 6.57484 0 5.48918 0C4.03336 0 2.63716 0.579459 1.60774 1.61091C0.578318 2.64236 0 4.04131 0 5.5ZM1.97611 5.5C1.97339 4.79235 2.18031 4.09985 2.57071 3.51014C2.96111 2.92042 3.51743 2.46003 4.16915 2.18734C4.82087 1.91464 5.53868 1.8419 6.2317 1.97828C6.92471 2.11467 7.56174 2.45405 8.06211 2.95347C8.56247 3.45289 8.90367 4.0899 9.04245 4.78376C9.18124 5.47761 9.11137 6.19712 8.84173 6.85117C8.57208 7.50522 8.11477 8.06436 7.52773 8.4578C6.94069 8.85123 6.25034 9.06124 5.54408 9.06125C4.60017 9.06125 3.69471 8.68652 3.02598 8.01905C2.35724 7.35157 1.97974 6.44577 1.97611 5.5Z" fill="#FE958E"/>
</svg>
