<svg width="2" height="2" viewBox="0 0 2 2" fill="none" xmlns="http://www.w3.org/2000/svg">
<path d="M1.85703 0.4861C1.9259 0.600742 1.97108 0.728076 1.98991 0.860546C2.00875 0.993016 2.00085 1.12792 1.96668 1.25728C1.93251 1.38663 1.87277 1.50779 1.79099 1.61358C1.70921 1.71936 1.60708 1.8076 1.49062 1.87309C1.26004 2.00057 0.989092 2.03355 0.734752 1.96509C0.480412 1.89662 0.262451 1.73206 0.126678 1.50595C-0.000559999 1.27492 -0.0334716 1.00347 0.0348585 0.748626C0.103189 0.493785 0.267426 0.275395 0.493088 0.139354C0.720009 0.00478421 0.990883 -0.0342765 1.24647 0.030702C1.50206 0.0956805 1.72159 0.259408 1.85703 0.4861Z" fill="#425AC2"/>
</svg>
