<svg width="3" height="3" viewBox="0 0 3 3" fill="none" xmlns="http://www.w3.org/2000/svg">
<path d="M2.99951 1.53776C2.99191 1.83417 2.89648 2.12167 2.72543 2.36391C2.55439 2.60615 2.31542 2.79227 2.03857 2.89872C1.76172 3.00517 1.45947 3.02718 1.17011 2.96197C0.880747 2.89676 0.617272 2.74726 0.412902 2.53237C0.208531 2.31747 0.0724086 2.04683 0.0218978 1.75466C-0.028613 1.46249 0.00872412 1.16191 0.129094 0.89092C0.249463 0.619929 0.447528 0.390684 0.698216 0.232189C0.948905 0.0736939 1.24094 -0.00694059 1.53747 0.000468365C1.73447 0.00539043 1.92858 0.0490587 2.10868 0.128991C2.28879 0.208924 2.45141 0.323549 2.58718 0.466313C2.72295 0.609078 2.82921 0.777187 2.89996 0.961031C2.97071 1.14488 3.00456 1.34085 2.99951 1.53776Z" fill="white"/>
</svg>
