<svg width="36" height="36" viewBox="0 0 36 36" fill="none" xmlns="http://www.w3.org/2000/svg">
<path d="M1.41161 24.9941C2.79215 28.2743 5.11239 31.0707 8.07901 33.0297C11.0456 34.9886 14.5254 36.0221 18.0782 35.9996C21.631 35.9771 25.0974 34.8995 28.0391 32.9031C30.9807 30.9067 33.2655 28.0812 34.6045 24.7838C35.9435 21.4863 36.2766 17.8651 35.5617 14.378C34.8468 10.8909 33.1159 7.69454 30.588 5.19303C28.0601 2.69153 24.8487 0.997231 21.3598 0.324411C17.871 -0.348409 14.2613 0.030474 10.9873 1.4131C8.81312 2.33129 6.84073 3.6696 5.18279 5.35164C3.52485 7.03368 2.21381 9.02648 1.3246 11.2162C0.435392 13.406 -0.0145666 15.7498 0.000359535 18.1139C0.0152857 20.4779 0.494822 22.8158 1.41161 24.9941Z" fill="#FEE2E3"/>
</svg>
