<svg width="7" height="7" viewBox="0 0 7 7" fill="none" xmlns="http://www.w3.org/2000/svg">
<path d="M0.000547178 3.43787C-0.0116808 4.12999 0.181282 4.8102 0.554957 5.39249C0.928631 5.97479 1.46629 6.43303 2.09993 6.70926C2.73358 6.98549 3.43471 7.06729 4.11477 6.94436C4.79484 6.82143 5.42324 6.49928 5.92053 6.01862C6.41782 5.53796 6.7617 4.92037 6.90862 4.24396C7.05555 3.56756 6.99896 2.86271 6.746 2.21853C6.49305 1.57434 6.05511 1.01976 5.48752 0.624891C4.91992 0.230027 4.24816 0.0126193 3.55722 0.000149671C2.63283 -0.00837051 1.74204 0.347173 1.0768 0.99017C0.411563 1.63317 0.0250506 2.51218 0.000547178 3.43787Z" fill="#FFC1C1"/>
</svg>
