<svg width="26" height="27" viewBox="0 0 26 27" fill="none" xmlns="http://www.w3.org/2000/svg">
<path d="M5.71192 5.27597C4.95838 6.45102 4.20478 7.59594 3.30053 8.69566L4.97346 6.5414C4.37063 7.30467 3.75266 8.05791 3.11968 8.8011C1.17578 10.8347 0.062993 13.5215 0 16.3334C-2.82017e-06 19.1596 1.12217 21.8702 3.11996 23.87C5.11775 25.8698 7.82783 26.9952 10.6551 26.9992C12.0583 27.0163 13.4502 26.7472 14.7458 26.2085C16.0414 25.6697 17.2135 24.8726 18.1906 23.8658C20.3429 21.3939 22.3218 18.7765 24.1134 16.0322C25.5404 13.593 25.9395 10.687 25.223 7.95369C24.5065 5.22033 22.7332 2.88343 20.293 1.45707C17.8528 0.0307098 14.9457 -0.368254 12.2112 0.347928C9.47676 1.06411 7.13887 2.83678 5.71192 5.27597Z" fill="#FFC1C1"/>
</svg>
