<svg width="2" height="2" viewBox="0 0 2 2" fill="none" xmlns="http://www.w3.org/2000/svg">
<path d="M0.0795543 0.612665C0.128314 0.490952 0.20107 0.380359 0.293433 0.287427C0.385797 0.194496 0.495894 0.121124 0.617163 0.0717612C0.738433 0.0223983 0.86838 -0.00194032 0.999258 0.000120768C1.13014 0.00218186 1.25924 0.0306477 1.37891 0.0838047C1.56065 0.160023 1.71572 0.288553 1.82445 0.453181C1.93317 0.61781 1.99066 0.811081 1.98963 1.00849C1.98859 1.20589 1.92907 1.39858 1.81862 1.56206C1.70818 1.72553 1.55177 1.85248 1.36924 1.92678C1.18671 2.00108 0.986278 2.01934 0.793341 1.97936C0.600403 1.93938 0.423645 1.84292 0.285503 1.70217C0.14736 1.56142 0.0540449 1.38273 0.0173795 1.18877C-0.0192859 0.994808 0.00235212 0.794288 0.0795543 0.612665Z" fill="#425AC2"/>
</svg>
