<svg width="2" height="2" viewBox="0 0 2 2" fill="none" xmlns="http://www.w3.org/2000/svg">
<path d="M1.92292 1.37888C1.87232 1.50031 1.79833 1.61058 1.7052 1.70336C1.61207 1.79614 1.50163 1.86961 1.38015 1.91962C1.25867 1.96963 1.12852 1.99517 0.997193 1.99479C0.865862 1.99441 0.735892 1.96809 0.614702 1.91739C0.493512 1.86668 0.383487 1.79258 0.290888 1.69927C0.19829 1.60595 0.124933 1.49526 0.0750231 1.37354C0.0251132 1.25183 -0.000373088 1.12149 4.12675e-06 0.989896C0.000381341 0.858305 0.0266136 0.728048 0.0772205 0.606619C0.18421 0.363169 0.382226 0.171491 0.628721 0.0726981C0.875216 -0.0260943 1.15055 -0.0241416 1.39559 0.0782178C1.63711 0.181283 1.82811 0.375898 1.92691 0.619581C2.02572 0.863263 2.02427 1.13625 1.92292 1.37888Z" fill="#425AC2"/>
</svg>
