<svg width="2" height="2" viewBox="0 0 2 2" fill="none" xmlns="http://www.w3.org/2000/svg">
<path d="M0.615052 1.91644C0.373645 1.81313 0.18169 1.61991 0.0796537 1.37757C-0.0223829 1.13523 -0.0265403 0.862659 0.0680617 0.617308C0.175238 0.373932 0.371788 0.181226 0.616969 0.0791816C0.862149 -0.0228632 1.13713 -0.0263923 1.38486 0.0692702C1.62754 0.176345 1.81865 0.374457 1.91713 0.621149C2.01562 0.86784 2.01364 1.14343 1.9116 1.38866C1.86294 1.51011 1.79035 1.62047 1.69818 1.7132C1.60602 1.80593 1.49616 1.87914 1.37515 1.9284C1.25414 1.97766 1.12448 2.00194 0.99388 1.99988C0.863284 1.99783 0.734455 1.96949 0.615052 1.91644Z" fill="#425AC2"/>
</svg>
