<svg width="2" height="2" viewBox="0 0 2 2" fill="none" xmlns="http://www.w3.org/2000/svg">
<path d="M0.00651704 1.11409C-0.0159324 0.918233 0.01991 0.720102 0.109515 0.544586C0.199121 0.369069 0.338489 0.223986 0.510134 0.127607C0.681778 0.0312278 0.878015 -0.0121256 1.0742 0.00291815C1.27039 0.0179619 1.45777 0.0907588 1.61278 0.212186C1.76779 0.333613 1.88352 0.498208 1.94543 0.685343C2.00733 0.872478 2.01265 1.07379 1.96072 1.26394C1.90879 1.4541 1.8019 1.62463 1.65353 1.7541C1.50515 1.88358 1.3219 1.96622 1.12679 1.99165C0.995567 2.00875 0.862256 1.99955 0.734623 1.96455C0.60699 1.92956 0.487575 1.86946 0.383328 1.7878C0.279081 1.70614 0.192076 1.60451 0.127386 1.48884C0.0626964 1.37318 0.0216149 1.24581 0.00651704 1.11409Z" fill="#425AC2"/>
</svg>
