<svg width="9" height="9" viewBox="0 0 9 9" fill="none" xmlns="http://www.w3.org/2000/svg">
<path d="M4.16227 8.28589C3.70428 8.7432 3.08409 8.99999 2.43751 8.99999C1.79093 8.99999 1.17069 8.7432 0.712698 8.28589C0.256289 7.827 0 7.20553 0 6.55768C0 5.90982 0.256289 5.28841 0.712698 4.82951L4.82348 0.725047C5.04707 0.495555 5.31419 0.313191 5.60916 0.188678C5.90414 0.0641657 6.22097 0 6.54105 0C6.86113 0 7.178 0.0641657 7.47298 0.188678C7.76795 0.313191 8.03507 0.495555 8.25866 0.725047C8.4877 0.949077 8.66971 1.21673 8.79398 1.51228C8.91825 1.80784 8.98228 2.12534 8.98228 2.44605C8.98228 2.76676 8.91825 3.08422 8.79398 3.37977C8.66971 3.67533 8.4877 3.94302 8.25866 4.16705L4.16227 8.28589Z" fill="#8EA8DD"/>
</svg>
