<svg width="11" height="11" viewBox="0 0 11 11" fill="none" xmlns="http://www.w3.org/2000/svg">
<path d="M0.0241 9.37893L1.57306 1.1244C1.61308 0.8878 1.71533 0.666168 1.8693 0.482321C2.02327 0.298474 2.22338 0.159075 2.44903 0.0784634C2.67467 -0.00214838 2.91767 -0.0210796 3.15303 0.0236782C3.38839 0.068436 3.60761 0.175232 3.78806 0.33307L10.1698 5.7792C10.3521 5.93503 10.4903 6.13628 10.5702 6.36266C10.6502 6.58905 10.6691 6.83257 10.6251 7.06862C10.5811 7.30467 10.4758 7.52491 10.3197 7.70715C10.1636 7.88939 9.96228 8.02718 9.73606 8.10661L1.83636 10.915C1.60987 10.999 1.36521 11.0212 1.12735 10.9794C0.889478 10.9376 0.666939 10.8331 0.482576 10.6769C0.298213 10.5206 0.158646 10.3181 0.0780829 10.09C-0.00248036 9.86199 -0.0211147 9.61657 0.0241 9.37893Z" fill="#425AC2"/>
</svg>
