<svg width="2" height="2" viewBox="0 0 2 2" fill="none" xmlns="http://www.w3.org/2000/svg">
<path d="M1.77901 0.398546C1.86201 0.50115 1.92329 0.619602 1.95917 0.746685C1.99505 0.873768 2.00477 1.00684 1.98772 1.1378C1.97067 1.26876 1.92722 1.39487 1.86001 1.50848C1.79279 1.62209 1.70321 1.72082 1.59673 1.79866C1.49198 1.87805 1.37255 1.93585 1.24535 1.96864C1.11815 2.00143 0.985727 2.00857 0.855746 1.98969C0.725764 1.97082 0.600816 1.92629 0.488144 1.85866C0.375473 1.79104 0.277314 1.70165 0.199372 1.59573C0.120667 1.49242 0.0633951 1.37441 0.0309289 1.24858C-0.00153721 1.12275 -0.00852385 0.991628 0.0103487 0.863041C0.0292212 0.734455 0.0735983 0.610995 0.140845 0.499855C0.208091 0.388715 0.296842 0.292165 0.401899 0.215931C0.502622 0.13326 0.619213 0.0721969 0.744439 0.0364744C0.869666 0.000751944 1.00086 -0.00888053 1.12993 0.00823692C1.25901 0.0253544 1.38324 0.0688526 1.49488 0.135987C1.60652 0.203121 1.70322 0.292467 1.77901 0.398546Z" fill="#425AC2"/>
</svg>
