<svg width="2" height="2" viewBox="0 0 2 2" fill="none" xmlns="http://www.w3.org/2000/svg">
<path d="M0.39481 0.235989C0.495362 0.149153 0.612616 0.0838924 0.739326 0.0442407C0.866036 0.00458908 0.999532 -0.00860759 1.13153 0.00545469C1.26354 0.019517 1.39125 0.0605946 1.50681 0.126055C1.62236 0.191516 1.72331 0.279964 1.80339 0.386043C1.88347 0.492122 1.94099 0.613525 1.97241 0.742753C2.00383 0.871982 2.00847 1.0063 1.98605 1.1374C1.96363 1.2685 1.91463 1.39364 1.84207 1.50502C1.76951 1.6164 1.67493 1.71163 1.56418 1.78495C1.3577 1.93894 1.0995 2.00642 0.844266 1.97306C0.589029 1.9397 0.356777 1.80814 0.196634 1.60623C0.119089 1.50351 0.0626663 1.38643 0.0306359 1.2617C-0.00139455 1.13697 -0.00839492 1.00711 0.0100411 0.879656C0.0284771 0.752197 0.071973 0.629673 0.138025 0.519188C0.204077 0.408703 0.291353 0.312419 0.39481 0.235989Z" fill="#425AC2"/>
</svg>
