<svg width="96" height="81" viewBox="0 0 96 81" fill="none" xmlns="http://www.w3.org/2000/svg">
<path d="M81 46.1378V64.4318C81 68.9958 79.3796 72.8981 76.1389 76.1389C72.8981 79.3796 68.9957 81 64.4318 81H16.5682C12.0043 81 8.10192 79.3796 4.86115 76.1389C1.62038 72.8981 0 68.9958 0 64.4318V16.5682C0 12.0043 1.62038 8.10192 4.86115 4.86115C8.10192 1.62038 12.0043 0 16.5682 0H64.4318C66.848 0 69.0916 0.479404 71.1626 1.43821C71.7379 1.70668 72.0831 2.14773 72.1982 2.76136C72.3132 3.41335 72.1406 3.96946 71.6804 4.42969L68.8615 7.24858C68.478 7.6321 68.0369 7.82387 67.5384 7.82387C67.4233 7.82387 67.2507 7.78551 67.0206 7.70881C66.1385 7.47869 65.2756 7.36364 64.4318 7.36364H16.5682C14.0369 7.36364 11.87 8.26492 10.0675 10.0675C8.26491 11.87 7.36364 14.0369 7.36364 16.5682V64.4318C7.36364 66.9631 8.26491 69.13 10.0675 70.9325C11.87 72.7351 14.0369 73.6364 16.5682 73.6364H64.4318C66.9631 73.6364 69.13 72.7351 70.9325 70.9325C72.7351 69.13 73.6364 66.9631 73.6364 64.4318V49.8196C73.6364 49.321 73.809 48.8992 74.1541 48.554L77.8359 44.8722C78.2195 44.4886 78.6605 44.2969 79.1591 44.2969C79.3892 44.2969 79.6193 44.3544 79.8494 44.4695C80.6165 44.7763 81 45.3324 81 46.1378ZM94.2891 18.0064L47.4609 64.8345C46.5405 65.755 45.4474 66.2152 44.1818 66.2152C42.9162 66.2152 41.8232 65.755 40.9027 64.8345L16.1655 40.0973C15.245 39.1769 14.7848 38.0838 14.7848 36.8182C14.7848 35.5526 15.245 34.4595 16.1655 33.5391L22.4936 27.2109C23.4141 26.2905 24.5071 25.8303 25.7727 25.8303C27.0384 25.8303 28.1314 26.2905 29.0518 27.2109L44.1818 42.3409L81.4027 5.12003C82.3232 4.19957 83.4162 3.73935 84.6818 3.73935C85.9475 3.73935 87.0405 4.19957 87.9609 5.12003L94.2891 11.4482C95.2095 12.3686 95.6697 13.4617 95.6697 14.7273C95.6697 15.9929 95.2095 17.0859 94.2891 18.0064Z" fill="#8685E7"/>
</svg>
