<svg width="3" height="3" viewBox="0 0 3 3" fill="none" xmlns="http://www.w3.org/2000/svg">
<path d="M2.9998 1.48048C3.00356 1.7786 2.9183 2.07109 2.75494 2.32054C2.59157 2.57 2.35752 2.76509 2.08268 2.88091C1.80784 2.99674 1.50463 3.02802 1.21191 2.97077C0.919192 2.91353 0.650209 2.77037 0.4393 2.55955C0.228391 2.34872 0.0851732 2.07982 0.0279038 1.78722C-0.0293656 1.49462 0.00195733 1.1916 0.117831 0.916866C0.233706 0.642136 0.428933 0.408182 0.678488 0.244886C0.928044 0.0815897 1.22053 -0.00363177 1.51878 0.000118672C1.91156 0.000118672 2.28831 0.156081 2.56604 0.433703C2.84378 0.711325 2.9998 1.08786 2.9998 1.48048Z" fill="white"/>
</svg>
