<svg width="2" height="2" viewBox="0 0 2 2" fill="none" xmlns="http://www.w3.org/2000/svg">
<path d="M1.49911 1.86959C1.26827 1.99722 0.997014 2.03024 0.742386 1.96169C0.487758 1.89315 0.269551 1.72837 0.133624 1.50201C0.00119877 1.27184 -0.0345591 0.99841 0.0342366 0.741832C0.103032 0.485254 0.270731 0.26655 0.500448 0.133864C0.730165 0.00117804 1.00309 -0.0346192 1.25916 0.0343122C1.51524 0.103244 1.73351 0.271273 1.86593 0.501443C1.93166 0.615373 1.97431 0.741172 1.99144 0.871639C2.00857 1.00211 1.99983 1.13466 1.96576 1.26175C1.93168 1.38883 1.87293 1.50795 1.79286 1.61225C1.71278 1.71655 1.61297 1.804 1.49911 1.86959Z" fill="#425AC2"/>
</svg>
