<svg width="11" height="11" viewBox="0 0 11 11" fill="none" xmlns="http://www.w3.org/2000/svg">
<path d="M9.36567 1.14327L10.36 9.419C10.4023 9.65974 10.3783 9.90744 10.2909 10.1356C10.2034 10.3638 10.0556 10.5639 9.86327 10.7144C9.67097 10.8648 9.44142 10.9601 9.19922 10.9899C8.95702 11.0198 8.71128 10.9831 8.48832 10.8837L0.826207 7.60271C0.606545 7.51069 0.415201 7.36195 0.271712 7.17163C0.128224 6.9813 0.0377541 6.75623 0.00950343 6.51941C-0.0187473 6.28259 0.0162551 6.04249 0.110933 5.82366C0.205611 5.60482 0.356593 5.41508 0.548424 5.2738L7.21619 0.279088C7.40157 0.136368 7.62086 0.0445268 7.85248 0.0125875C8.0841 -0.0193518 8.32002 0.00974456 8.537 0.0969808C8.75399 0.184217 8.94454 0.326571 9.08985 0.510052C9.23515 0.693534 9.33023 0.911772 9.36567 1.14327Z" fill="#425AC2"/>
</svg>
