<svg width="2" height="2" viewBox="0 0 2 2" fill="none" xmlns="http://www.w3.org/2000/svg">
<path d="M0.90099 1.97646C1.02889 1.99313 1.15882 1.9841 1.28322 1.94999C1.40762 1.91588 1.52405 1.85737 1.62565 1.77777C1.72726 1.69818 1.81203 1.59912 1.87508 1.48639C1.93813 1.37365 1.97821 1.24945 1.99292 1.12107C2.00856 0.990455 1.99836 0.858069 1.96293 0.731402C1.9275 0.604735 1.8675 0.486274 1.78639 0.382835C1.70527 0.279396 1.60463 0.193005 1.49018 0.128542C1.37574 0.0640791 1.24975 0.0228058 1.1194 0.00713243C0.989047 -0.00854092 0.85686 0.00167887 0.730442 0.0371813C0.604025 0.0726838 0.485857 0.132802 0.382621 0.214075C0.279386 0.295349 0.193105 0.39619 0.128769 0.510861C0.0644324 0.625532 0.0233008 0.751764 0.00765833 0.882375C-0.00886177 1.01357 0.00140332 1.14678 0.0378904 1.27386C0.0743776 1.40094 0.136316 1.51929 0.219889 1.62164C0.303462 1.72399 0.406931 1.80819 0.524028 1.86919C0.641125 1.93019 0.769372 1.9667 0.90099 1.97646Z" fill="#425AC2"/>
</svg>
