<svg width="28" height="26" viewBox="0 0 28 26" fill="none" xmlns="http://www.w3.org/2000/svg">
<path d="M26.8582 10.573C30.2759 16.8203 25.5145 20.1414 19.2779 23.5503C17.7919 24.4017 16.1514 24.9478 14.4523 25.1568C12.7532 25.3659 11.0295 25.2335 9.38202 24.7676C7.73454 24.3017 6.19627 23.5115 4.85713 22.4433C3.518 21.375 2.40485 20.0501 1.58273 18.546C0.760613 17.0419 0.246038 15.3888 0.0690419 13.6831C-0.107955 11.9775 0.0561929 10.2537 0.551898 8.61234C1.0476 6.971 1.8649 5.4451 2.95606 4.1238C4.04723 2.80249 5.39039 1.71228 6.90699 0.916898C13.1436 -2.50664 23.4405 4.31118 26.8582 10.573Z" fill="#FFB3B6"/>
</svg>
