<svg width="7" height="10" viewBox="0 0 7 10" fill="none" xmlns="http://www.w3.org/2000/svg">
<path d="M2.30532 8.51756C2.42213 8.80734 2.595 9.07107 2.81395 9.29365C3.0329 9.51623 3.29361 9.69324 3.5811 9.81445C3.86859 9.93567 4.17717 9.99873 4.48908 9.99998C4.80098 10.0012 5.11006 9.94068 5.39851 9.82177C5.98018 9.58236 6.44362 9.12198 6.68753 8.54123C6.93144 7.96048 6.93597 7.3066 6.70015 6.72251L4.55872 1.47754C4.32268 0.895729 3.86582 0.43157 3.28847 0.187029C2.71113 -0.0575124 2.06051 -0.0624281 1.47954 0.173333C1.19033 0.290373 0.927079 0.463583 0.704938 0.682966C0.482797 0.902349 0.306161 1.16355 0.185181 1.45161C0.0642014 1.73967 0.00126991 2.04888 1.90203e-05 2.3614C-0.00123187 2.67392 0.0592286 2.98358 0.177898 3.2726L2.30532 8.51756Z" fill="#8EA8DD"/>
</svg>
