<svg width="29" height="22" viewBox="0 0 29 22" fill="none" xmlns="http://www.w3.org/2000/svg">
<path d="M10.5198 21.492C12.9864 21.5407 15.4511 21.3213 17.8702 20.8375L15.0729 21.2094C16.1966 21.0532 17.3316 20.9935 18.4655 21.0309C24.2089 21.3284 29 16.0335 29 10.5155C28.9577 7.73721 27.8338 5.08484 25.8669 3.12148C23.8999 1.15812 21.2449 0.0383767 18.4655 0C16.0082 0.0084011 13.5572 0.247417 11.1447 0.713914L13.942 0.327215C12.8091 0.491344 11.6621 0.536204 10.5198 0.46107C4.7912 0.029743 0 5.57751 0 10.9765C0 17.0448 4.80608 21.0755 10.5198 21.492Z" fill="#FFC1C1"/>
</svg>
