<svg width="14" height="14" viewBox="0 0 14 14" fill="none" xmlns="http://www.w3.org/2000/svg">
<path d="M1.49258 1.36035L12.051 0.0142493C12.3517 -0.0246465 12.6573 0.0164278 12.9371 0.133289C13.2169 0.250151 13.4611 0.438681 13.6452 0.680008C13.8292 0.921335 13.9467 1.20693 13.9856 1.5081C14.0246 1.80927 13.9838 2.11545 13.8673 2.39582L9.74734 12.2326C9.62794 12.5089 9.43861 12.7493 9.19813 12.9299C8.95764 13.1105 8.67429 13.2251 8.37605 13.2624C8.0778 13.2998 7.77501 13.2585 7.49754 13.1428C7.22008 13.027 6.97756 12.8408 6.79394 12.6024L0.355496 4.12648C0.171855 3.88602 0.0543908 3.60153 0.0148466 3.30137C-0.0246976 3.00122 0.015091 2.69591 0.130169 2.41595C0.245247 2.136 0.431613 1.89119 0.670683 1.70596C0.909752 1.52072 1.19316 1.40156 1.49258 1.36035Z" fill="#425AC2"/>
</svg>
