<svg width="2" height="2" viewBox="0 0 2 2" fill="none" xmlns="http://www.w3.org/2000/svg">
<path d="M1.87317 1.50594C1.7374 1.73204 1.51944 1.8966 1.26511 1.96506C1.01077 2.03353 0.739833 2.00055 0.509256 1.87306C0.392801 1.80758 0.290671 1.71934 0.208892 1.61356C0.127113 1.50778 0.0673806 1.38662 0.0332083 1.25727C-0.000964069 1.12792 -0.00886289 0.993017 0.00997428 0.86055C0.0288114 0.728083 0.073987 0.600752 0.142855 0.486112C0.278289 0.259425 0.497818 0.0956709 0.753399 0.0306939C1.00898 -0.0342831 1.27979 0.00480785 1.5067 0.139374C1.73236 0.275412 1.89665 0.493766 1.96498 0.748601C2.03331 1.00344 2.0004 1.27491 1.87317 1.50594Z" fill="#425AC2"/>
</svg>
