<svg width="10" height="7" viewBox="0 0 10 7" fill="none" xmlns="http://www.w3.org/2000/svg">
<path d="M3.25998 6.72104C2.97183 6.83998 2.663 6.90051 2.35136 6.89908C2.03973 6.89765 1.73146 6.8343 1.44442 6.71272C1.15737 6.59114 0.897253 6.41373 0.679084 6.19075C0.460915 5.96778 0.289039 5.70367 0.173408 5.4137C-0.0624548 4.83019 -0.057537 4.17671 0.187109 3.59683C0.431754 3.01696 0.896112 2.5581 1.47818 2.32102L6.72536 0.170221C7.31004 -0.0628132 7.96268 -0.0563466 8.54266 0.188196C9.12263 0.432739 9.58349 0.895771 9.82595 1.47756C10.0623 2.06306 10.0578 2.71855 9.8133 3.30069C9.56881 3.88284 9.10426 4.34433 8.52118 4.58431L3.25998 6.72104Z" fill="#8EA8DD"/>
</svg>
