<svg width="14" height="14" viewBox="0 0 14 14" fill="none" xmlns="http://www.w3.org/2000/svg">
<path d="M13.2211 9.66561L9.66422 13.2286C9.36922 13.4935 9.02499 13.6976 8.65123 13.8292C8.27746 13.9607 7.88149 14.0173 7.48591 13.9955C7.09033 13.9737 6.70294 13.874 6.34583 13.7022C5.98872 13.5304 5.66889 13.2897 5.40467 12.994L1.01338 8.59522C0.417412 8.0652 0.0551685 7.32042 0.00579689 6.52363C-0.0435747 5.72684 0.223951 4.94286 0.749917 4.34308L4.29219 0.765409C4.88966 0.234082 5.67245 -0.0393548 6.47019 0.00458181C7.26793 0.0485184 8.01604 0.406278 8.55174 1.00002L12.943 5.39879C13.542 5.92934 13.9074 6.67557 13.9595 7.47481C14.0116 8.27406 13.7462 9.06154 13.2211 9.66561Z" fill="#E98896"/>
</svg>
