<svg width="14" height="10" viewBox="0 0 14 10" fill="none" xmlns="http://www.w3.org/2000/svg">
<path d="M14 6.72236C13.9862 6.31377 13.9327 5.90749 13.8403 5.50926C13.6429 4.60945 13.2705 3.7574 12.7445 3.00178C12.2184 2.24616 11.5489 1.60176 10.7743 1.10538C9.99968 0.608991 9.13509 0.27033 8.22985 0.108746C7.32461 -0.0528375 6.39647 -0.0341934 5.49842 0.163626C4.60038 0.361446 3.75 0.734572 2.99587 1.26168C2.24174 1.78879 1.59859 2.45955 1.10318 3.2357C0.607772 4.01185 0.269798 4.87814 0.108532 5.78517C-0.0527335 6.69219 -0.0341262 7.62216 0.163304 8.52198C0.247027 8.92909 0.371843 9.32663 0.535829 9.70844L14 6.72236Z" fill="#FFC1C1"/>
</svg>
