<svg width="2" height="2" viewBox="0 0 2 2" fill="none" xmlns="http://www.w3.org/2000/svg">
<path d="M0.397713 1.80485C0.556169 1.92191 0.745635 1.98943 0.94228 1.99886C1.13892 2.00828 1.334 1.95922 1.50288 1.85785C1.67177 1.75649 1.80694 1.60734 1.89143 1.42918C1.97593 1.25101 2.00595 1.05179 1.97771 0.856567C1.94947 0.661349 1.86424 0.478842 1.73274 0.33204C1.60125 0.185238 1.42937 0.0806905 1.23871 0.0315356C1.04805 -0.0176193 0.847146 -0.00915152 0.661263 0.055825C0.475381 0.120802 0.312852 0.239431 0.194083 0.396749C0.0383669 0.611835 -0.027506 0.879279 0.0105304 1.14225C0.0485669 1.40522 0.187463 1.64291 0.397713 1.80485Z" fill="#425AC2"/>
</svg>
