<svg width="2" height="2" viewBox="0 0 2 2" fill="none" xmlns="http://www.w3.org/2000/svg">
<path d="M0.0772772 1.38147C0.180773 1.62425 0.374254 1.81729 0.617012 1.91991C0.85977 2.02252 1.13281 2.02667 1.37859 1.93154C1.50008 1.8807 1.61041 1.80642 1.70325 1.71287C1.79608 1.61931 1.86959 1.50835 1.91962 1.38632C1.96966 1.2643 1.99521 1.13357 1.99483 1.00164C1.99445 0.869723 1.96819 0.7392 1.91745 0.617465C1.86672 0.49573 1.79252 0.38518 1.69915 0.292165C1.60578 0.19915 1.4951 0.125495 1.37331 0.0753603C1.25153 0.0252261 1.12105 -0.000374765 0.989391 4.1453e-06C0.857728 0.000383055 0.7274 0.0267021 0.605905 0.0775365C0.363783 0.180861 0.172294 0.375967 0.0732438 0.620263C-0.0258063 0.864559 -0.0243296 1.13823 0.0772772 1.38147Z" fill="#425AC2"/>
</svg>
