<svg width="10" height="7" viewBox="0 0 10 7" fill="none" xmlns="http://www.w3.org/2000/svg">
<path d="M6.72742 6.72235C7.01644 6.84149 7.3261 6.90217 7.63862 6.90091C7.95114 6.89966 8.26031 6.83648 8.54837 6.71502C8.83643 6.59356 9.09767 6.41625 9.31706 6.19323C9.53644 5.97021 9.70965 5.70592 9.82669 5.41557C10.0625 4.8323 10.0575 4.1791 9.813 3.59947C9.56845 3.01985 9.10429 2.56118 8.52248 2.32421L3.2775 0.174317C2.6934 -0.0624277 2.03953 -0.0578603 1.45878 0.18701C0.878023 0.431881 0.417637 0.897131 0.178228 1.4811C0.0593241 1.77069 -0.00123429 2.08101 1.90644e-05 2.39415C0.00127242 2.70728 0.0643281 3.01706 0.185547 3.30569C0.306765 3.59431 0.483728 3.85608 0.706308 4.07589C0.928887 4.29571 1.19266 4.46926 1.48244 4.58653L6.72742 6.72235Z" fill="#8EA8DD"/>
</svg>
