<svg width="2" height="2" viewBox="0 0 2 2" fill="none" xmlns="http://www.w3.org/2000/svg">
<path d="M0.142292 1.50791C0.0736952 1.39372 0.0286978 1.26686 0.00993495 1.13492C-0.00882794 1.00297 -0.000960268 0.86863 0.0330773 0.73979C0.0671149 0.61095 0.126612 0.490266 0.208068 0.384903C0.289525 0.279539 0.391253 0.191653 0.507248 0.126425C0.736916 -0.000558878 1.00679 -0.0334046 1.26012 0.0347886C1.51345 0.102982 1.73054 0.26689 1.86578 0.4921C1.99359 0.72529 2.02697 0.998759 1.95903 1.25594C1.89109 1.51312 1.72697 1.73429 1.50076 1.87358C1.27109 2.00057 1.00128 2.03341 0.747954 1.96522C0.494623 1.89703 0.277526 1.73312 0.142292 1.50791Z" fill="#425AC2"/>
</svg>
