<svg width="9" height="9" viewBox="0 0 9 9" fill="none" xmlns="http://www.w3.org/2000/svg">
<path d="M4.8216 8.28599C5.27953 8.74324 5.89969 9.00001 6.54619 9.00001C7.19269 9.00001 7.81281 8.74324 8.27074 8.28599C8.72709 7.82716 8.98335 7.20577 8.98335 6.558C8.98335 5.91023 8.72709 5.28889 8.27074 4.83005L4.16052 0.726098C3.93572 0.496209 3.66738 0.313598 3.37125 0.188918C3.07512 0.0642382 2.75714 0 2.43593 0C2.11472 0 1.79674 0.0642382 1.50061 0.188918C1.20448 0.313598 0.936181 0.496209 0.71138 0.726098C0.255905 1.18248 0 1.80147 0 2.44688C0 3.0923 0.255905 3.71129 0.71138 4.16767L4.8216 8.28599Z" fill="#8EA8DD"/>
</svg>
