<svg width="7" height="7" viewBox="0 0 7 7" fill="none" xmlns="http://www.w3.org/2000/svg">
<path d="M0.240005 4.77498C0.493598 5.42458 0.935118 5.98343 1.50792 6.37984C2.08073 6.77626 2.7587 6.99216 3.45481 6.99981C4.15092 7.00746 4.83342 6.80653 5.41477 6.4228C5.99611 6.03907 6.44978 5.49006 6.71753 4.84619C6.98528 4.20232 7.05489 3.49295 6.91748 2.80915C6.78007 2.12535 6.4419 1.49829 5.94632 1.00842C5.45073 0.518549 4.82036 0.188199 4.1361 0.0598039C3.45184 -0.0685918 2.74489 0.0108158 2.10598 0.287805C1.27543 0.647877 0.616768 1.31686 0.268706 2.15386C-0.0793572 2.99085 -0.0896521 3.93053 0.240005 4.77498Z" fill="#FE958E"/>
</svg>
