<svg width="2" height="2" viewBox="0 0 2 2" fill="none" xmlns="http://www.w3.org/2000/svg">
<path d="M0.499585 0.127252C0.730755 -0.000562535 1.00239 -0.0336232 1.25738 0.0350163C1.51237 0.103656 1.73089 0.268668 1.86701 0.495352C1.96554 0.667073 2.01103 0.864203 1.9978 1.06184C1.98457 1.25948 1.91318 1.44874 1.79264 1.60574C1.6721 1.76273 1.50786 1.88042 1.3206 1.94391C1.13334 2.00741 0.931478 2.01387 0.740558 1.96248C0.549637 1.91108 0.378191 1.80413 0.2479 1.65516C0.117609 1.50619 0.0343334 1.32188 0.00854674 1.12549C-0.0172399 0.929105 0.0156289 0.729468 0.10303 0.551798C0.190431 0.374128 0.328428 0.226375 0.499585 0.127252Z" fill="#425AC2"/>
</svg>
