<svg width="14" height="15" viewBox="0 0 14 15" fill="none" xmlns="http://www.w3.org/2000/svg">
<path d="M10.7317 14.7497L0.915511 9.15436C0.637138 8.99324 0.405991 8.76156 0.245288 8.48263C0.084585 8.2037 0 7.88733 0 7.56528C0 7.24323 0.084585 6.92687 0.245288 6.64794C0.405991 6.369 0.637138 6.13733 0.915511 5.9762L10.6572 0.261529C10.9334 0.0946573 11.249 0.00442646 11.5716 0.000158805C11.8941 -0.00410885 12.212 0.0777085 12.4926 0.237213C12.7731 0.396719 13.0063 0.628158 13.168 0.90776C13.3297 1.18736 13.4142 1.50506 13.4128 1.8282L13.4873 13.1382C13.492 13.4633 13.4104 13.7839 13.2508 14.067C13.0912 14.3502 12.8594 14.5858 12.5791 14.7497C12.2987 14.9136 11.98 15 11.6554 15C11.3308 15 11.012 14.9136 10.7317 14.7497Z" fill="#425AC2"/>
</svg>
