<svg width="2" height="2" viewBox="0 0 2 2" fill="none" xmlns="http://www.w3.org/2000/svg">
<path d="M0.000195866 1.0198C-0.00374666 0.820365 0.0519078 0.624344 0.160039 0.456862C0.26817 0.289381 0.423817 0.158121 0.606978 0.0799659C0.790139 0.00181057 0.992428 -0.0196871 1.18787 0.0182586C1.38331 0.0562043 1.563 0.151812 1.70377 0.292859C1.84454 0.433906 1.93996 0.613944 1.97783 0.809772C2.0157 1.0056 1.9943 1.20829 1.9163 1.39181C1.8383 1.57533 1.7073 1.73129 1.54015 1.83963C1.37299 1.94797 1.1773 2.00374 0.97826 1.99979C0.718856 1.99979 0.470109 1.89659 0.286683 1.7128C0.103257 1.52901 0.000195866 1.27971 0.000195866 1.0198Z" fill="#425AC2"/>
</svg>
