<svg width="2" height="2" viewBox="0 0 2 2" fill="none" xmlns="http://www.w3.org/2000/svg">
<path d="M1.38108 0.0742211C1.62395 0.181379 1.81521 0.379644 1.91376 0.626527C2.01232 0.87341 2.01031 1.14921 1.9082 1.39463C1.80537 1.63653 1.61122 1.82784 1.36811 1.92679C1.12501 2.02575 0.852699 2.02434 0.610644 1.92282C0.489338 1.87404 0.379085 1.80124 0.286465 1.70882C0.193844 1.6164 0.120749 1.50624 0.0715516 1.3849C0.0223541 1.26356 -0.00193396 1.13354 0.000120225 1.00258C0.00217441 0.871629 0.0305449 0.742415 0.0835239 0.622683C0.132522 0.501103 0.205013 0.390394 0.296828 0.296966C0.388644 0.203538 0.497962 0.129217 0.618533 0.0782507C0.739103 0.0272848 0.868528 0.000712209 0.999387 1.41017e-05C1.13025 -0.000684006 1.25997 0.0245445 1.38108 0.0742211Z" fill="#425AC2"/>
</svg>
