<svg width="2" height="2" viewBox="0 0 2 2" fill="none" xmlns="http://www.w3.org/2000/svg">
<path d="M0.195114 1.59658C0.0780542 1.4375 0.0105716 1.24728 0.00114308 1.04986C-0.0082854 0.852446 0.0407801 0.656669 0.142145 0.487117C0.24351 0.317565 0.392653 0.1818 0.570818 0.0969749C0.748983 0.0121494 0.948204 -0.017988 1.14342 0.0103599C1.33864 0.0387079 1.52114 0.124274 1.66794 0.256289C1.81474 0.388304 1.91929 0.560856 1.96844 0.752266C2.0176 0.943676 2.00916 1.14537 1.94418 1.33199C1.87921 1.5186 1.76058 1.68183 1.60326 1.80107C1.38818 1.9574 1.12074 2.02347 0.857773 1.98528C0.594807 1.9471 0.357055 1.80765 0.195114 1.59658Z" fill="#425AC2"/>
</svg>
