<svg width="2" height="2" viewBox="0 0 2 2" fill="none" xmlns="http://www.w3.org/2000/svg">
<path d="M1.99566 0.980113C1.99963 1.17868 1.94451 1.37393 1.8373 1.54097C1.73008 1.70801 1.5756 1.83928 1.39364 1.91803C1.21168 1.99679 1.01043 2.01945 0.815554 1.98315C0.620679 1.94686 0.441041 1.85327 0.299475 1.71426C0.157908 1.57525 0.060846 1.39714 0.0206952 1.20265C-0.0194555 1.00817 -0.000918375 0.806115 0.0739904 0.62224C0.148899 0.438365 0.276757 0.28098 0.44127 0.1702C0.605783 0.05942 0.799519 0.000243759 0.997732 0.000204034C1.12783 -0.00245683 1.25714 0.0209317 1.37811 0.0689835C1.49907 0.117035 1.60927 0.188793 1.7022 0.280052C1.79514 0.37131 1.86895 0.480244 1.91934 0.600453C1.96973 0.720662 1.99569 0.849731 1.99566 0.980113Z" fill="#425AC2"/>
</svg>
