<svg width="18" height="18" viewBox="0 0 18 18" fill="none" xmlns="http://www.w3.org/2000/svg">
<path d="M15.3409 2.63917C16.5966 3.89819 17.4514 5.50187 17.7974 7.24746C18.1433 8.99304 17.9649 10.8022 17.2846 12.4462C16.6043 14.0902 15.4527 15.4953 13.9754 16.4838C12.498 17.4724 10.7613 18 8.98465 18C7.20803 18 5.47132 17.4724 3.99399 16.4838C2.51666 15.4953 1.36506 14.0902 0.684776 12.4462C0.00448789 10.8022 -0.173966 8.99304 0.171992 7.24746C0.517949 5.50187 1.37278 3.89819 2.62842 2.63917C3.46284 1.8025 4.4537 1.13878 5.54434 0.685933C6.63499 0.233086 7.80403 0 8.98465 0C10.1653 0 11.3344 0.233086 12.425 0.685933C13.5157 1.13878 14.5065 1.8025 15.3409 2.63917Z" fill="#7F4D4E"/>
</svg>
