<svg width="2" height="2" viewBox="0 0 2 2" fill="none" xmlns="http://www.w3.org/2000/svg">
<path d="M1.99175 0.86034C2.00871 0.990987 1.99959 1.12372 1.96488 1.25079C1.93018 1.37787 1.87058 1.49679 1.78959 1.60058C1.7086 1.70438 1.60785 1.79097 1.49314 1.85538C1.37844 1.91978 1.25209 1.96072 1.12146 1.97575C0.861183 2.01034 0.597837 1.9401 0.389162 1.78043C0.180488 1.62077 0.0435092 1.38468 0.00828025 1.12398C-0.00867905 0.993336 0.000473992 0.860607 0.0351795 0.733531C0.069885 0.606456 0.129455 0.487593 0.210442 0.383802C0.291428 0.28001 0.392215 0.193354 0.50692 0.128946C0.621625 0.0645389 0.747969 0.0236677 0.878599 0.00863577C1.13888 -0.0259567 1.40223 0.0442269 1.6109 0.203893C1.81958 0.363559 1.95652 0.599641 1.99175 0.86034Z" fill="#425AC2"/>
</svg>
