<svg width="2" height="2" viewBox="0 0 2 2" fill="none" xmlns="http://www.w3.org/2000/svg">
<path d="M0.869326 0.00835716C1.00055 -0.00874375 1.13386 0.000454579 1.26149 0.0354499C1.38912 0.0704452 1.50854 0.130481 1.61279 0.212144C1.71703 0.293807 1.80404 0.395436 1.86873 0.511098C1.93342 0.626761 1.9745 0.754191 1.9896 0.885912C2.01205 1.08177 1.97623 1.2799 1.88663 1.45542C1.79702 1.63094 1.65762 1.77602 1.48598 1.8724C1.31434 1.96878 1.1181 2.01213 0.921913 1.99709C0.725728 1.98204 0.53834 1.90925 0.383332 1.78782C0.228324 1.66639 0.112591 1.5018 0.0506851 1.31466C-0.0112211 1.12753 -0.0165393 0.926217 0.0353939 0.736061C0.0873271 0.545905 0.19421 0.375379 0.342586 0.245901C0.490962 0.116423 0.674211 0.033785 0.869326 0.00835716Z" fill="#425AC2"/>
</svg>
