<svg width="7" height="10" viewBox="0 0 7 10" fill="none" xmlns="http://www.w3.org/2000/svg">
<path d="M4.57439 8.52129C4.33537 9.10433 3.87572 9.56883 3.2959 9.81331C2.71609 10.0578 2.06326 10.0623 1.4801 9.82598C1.19079 9.7089 0.927437 9.53562 0.705215 9.31616C0.482993 9.0967 0.306272 8.83536 0.185248 8.5472C0.0642247 8.25904 0.00127036 7.94975 1.90206e-05 7.63712C-0.00123232 7.32449 0.0592714 7.01471 0.177984 6.72559L2.30618 1.47872C2.5452 0.895689 3.00485 0.431187 3.58467 0.18671C4.16448 -0.0577673 4.81731 -0.0623273 5.40047 0.174037C5.68978 0.291119 5.95313 0.464392 6.17535 0.683855C6.39758 0.903317 6.5743 1.16462 6.69532 1.45278C6.81634 1.74094 6.8793 2.05026 6.88055 2.3629C6.8818 2.67553 6.8213 2.9853 6.70259 3.27443L4.57439 8.52129Z" fill="#8EA8DD"/>
</svg>
