<svg width="21" height="23" viewBox="0 0 21 23" fill="none" xmlns="http://www.w3.org/2000/svg">
<path d="M0.58494 18.4528C2.32212 24.3516 7.20974 23.4226 13.0543 21.6824C14.4453 21.267 15.7411 20.5812 16.8675 19.6642C17.9939 18.7472 18.9291 17.6169 19.6194 16.3379C20.3098 15.0589 20.7419 13.6562 20.891 12.21C21.0402 10.7637 20.9036 9.30211 20.4889 7.90873C20.0743 6.51534 19.3896 5.21739 18.4741 4.08904C17.5587 2.96069 16.4304 2.02402 15.1535 1.33249C13.8767 0.640947 12.4764 0.208086 11.0326 0.0586411C9.58876 -0.0908037 8.12969 0.0460729 6.73867 0.461474C0.952977 2.20162 -1.13752 12.5983 0.58494 18.4528Z" fill="#FFCACE"/>
</svg>
