<svg width="24" height="44" viewBox="0 0 24 44" fill="none" xmlns="http://www.w3.org/2000/svg">
<path d="M2.27099 10.0129C2.10036 13.804 1.59565 17.5726 0.762728 21.275C-0.146737 25.9881 -0.243659 30.8218 0.476153 35.5675C1.35095 41.3116 7.67059 44.9451 13.1154 43.7842C15.8621 43.1621 18.2583 41.4949 19.7958 39.1362C21.3332 36.7775 21.8909 33.9129 21.3506 31.1501C21.1545 29.8083 21.1243 29.6425 21.2299 30.532C21.2299 29.7781 21.2299 29.0243 21.2299 28.2403C21.3656 26.3363 21.6225 24.4429 21.9991 22.5716C22.8173 18.8665 23.3219 15.0992 23.5074 11.3095C23.6409 8.49596 22.6706 5.74145 20.8029 3.63236C18.9352 1.52327 16.3177 0.226165 13.5076 0.0171938C7.9421 -0.314489 2.27103 4.19338 2.2107 10.0129H2.27099Z" fill="#FFC1C1"/>
</svg>
