<svg width="14" height="15" viewBox="0 0 14 15" fill="none" xmlns="http://www.w3.org/2000/svg">
<path d="M12.9213 10.1007L2.59715 14.837C2.30311 14.9698 1.97937 15.0229 1.65838 14.991C1.33739 14.959 1.03042 14.8431 0.768241 14.6549C0.506063 14.4666 0.297864 14.2127 0.164541 13.9185C0.0312182 13.6242 -0.0225477 13.3001 0.00860453 12.9784L1.07094 1.67739C1.10014 1.35409 1.21407 1.04425 1.40117 0.779194C1.58826 0.514134 1.84191 0.303238 2.13646 0.167877C2.43102 0.0325161 2.75601 -0.0224917 3.07861 0.00833567C3.40122 0.0391631 3.70999 0.154768 3.97368 0.343473L13.2206 6.92323C13.4836 7.11071 13.6927 7.3642 13.827 7.65823C13.9614 7.95227 14.0161 8.2765 13.9858 8.59842C13.9554 8.92034 13.8411 9.22863 13.6543 9.49232C13.4675 9.756 13.2147 9.96581 12.9213 10.1007Z" fill="#425AC2"/>
</svg>
