<svg width="6" height="6" viewBox="0 0 6 6" fill="none" xmlns="http://www.w3.org/2000/svg">
<path d="M0 3.00001C0 3.59335 0.175599 4.17334 0.504593 4.66669C0.833587 5.16003 1.30119 5.54455 1.84829 5.77161C2.39538 5.99867 2.99738 6.05812 3.57817 5.94236C4.15897 5.82661 4.69249 5.54086 5.11122 5.1213C5.52995 4.70174 5.81509 4.16721 5.93062 3.58527C6.04615 3.00333 5.98687 2.40015 5.76025 1.85198C5.53364 1.3038 5.14988 0.83523 4.6575 0.505588C4.16513 0.175945 3.58623 0 2.99406 0C2.60087 0 2.21155 0.0776405 1.84829 0.228404C1.48503 0.379167 1.15496 0.600137 0.876934 0.878711C0.598908 1.15729 0.378374 1.488 0.227907 1.85198C0.0774401 2.21595 0 2.60604 0 3.00001Z" fill="#4E687F"/>
</svg>
