<svg width="2" height="2" viewBox="0 0 2 2" fill="none" xmlns="http://www.w3.org/2000/svg">
<path d="M0.00812315 0.852735C-0.00849891 0.980784 0.00044185 1.11087 0.0344572 1.23542C0.0684726 1.35997 0.126888 1.47653 0.206264 1.57826C0.285641 1.67999 0.384423 1.76486 0.496847 1.82799C0.609271 1.89111 0.733073 1.93123 0.861105 1.94596C0.990404 1.96852 1.12292 1.96459 1.25067 1.93444C1.37841 1.90429 1.49873 1.84849 1.60439 1.77048C1.71005 1.69248 1.79885 1.59386 1.86543 1.48054C1.93202 1.36722 1.97503 1.24156 1.99184 1.11114C2.00846 0.983087 1.99952 0.852997 1.9655 0.728448C1.93149 0.603899 1.87307 0.4874 1.79369 0.385673C1.71432 0.283945 1.61554 0.199012 1.50311 0.135885C1.39069 0.0727584 1.26689 0.0327 1.13885 0.017967C1.00924 -0.00759813 0.875713 -0.00586431 0.746809 0.0230622C0.617906 0.0519887 0.496464 0.107474 0.390119 0.185988C0.283773 0.264502 0.194837 0.364293 0.129078 0.479085C0.0633194 0.593877 0.0221477 0.721126 0.00812315 0.852735Z" fill="#425AC2"/>
</svg>
