<svg width="18" height="18" viewBox="0 0 18 18" fill="none" xmlns="http://www.w3.org/2000/svg">
<path d="M5.61218 0.484163L16.3206 9.00409C16.6283 9.24363 16.8671 9.56071 17.0126 9.9229C17.1581 10.2851 17.2051 10.6794 17.1487 11.0657C17.0924 11.452 16.9347 11.8164 16.6918 12.1218C16.4489 12.4271 16.1295 12.6624 15.7662 12.8037L3.02993 17.8456C2.66765 17.9885 2.2742 18.0332 1.88914 17.9755C1.50408 17.9177 1.14097 17.7594 0.836361 17.5165C0.53175 17.2736 0.296335 16.9546 0.153833 16.5917C0.0113307 16.2287 -0.0332222 15.8346 0.0245847 15.4489L2.03784 1.88709C2.09636 1.50194 2.25501 1.13897 2.4978 0.834617C2.74059 0.530265 3.05903 0.295244 3.42115 0.15311C3.78327 0.0109764 4.1763 -0.0332609 4.56088 0.0248454C4.94545 0.0829518 5.30803 0.241361 5.61218 0.484163Z" fill="#425AC2"/>
</svg>
