<svg width="14" height="14" viewBox="0 0 14 14" fill="none" xmlns="http://www.w3.org/2000/svg">
<path d="M6.16225 0.545451L13.5235 8.45989C13.735 8.68357 13.8835 8.95943 13.9539 9.25936C14.0242 9.55929 14.0139 9.87254 13.924 10.1672C13.8341 10.4618 13.6678 10.7273 13.442 10.9365C13.2163 11.1458 12.9391 11.2914 12.6389 11.3583L2.14434 13.7912C1.84487 13.8597 1.5327 13.8481 1.23907 13.7578C0.945449 13.6675 0.680679 13.5015 0.471205 13.2764C0.26173 13.0514 0.114888 12.7752 0.0454294 12.4755C-0.0240289 12.1758 -0.0136849 11.863 0.0753975 11.5685L3.23874 1.22127C3.32941 0.931376 3.4942 0.670234 3.71672 0.463826C3.93924 0.257419 4.21178 0.112922 4.50729 0.0446117C4.80279 -0.0236984 5.11098 -0.0134117 5.40129 0.0744476C5.69161 0.162307 5.95394 0.324667 6.16225 0.545451Z" fill="#425AC2"/>
</svg>
