<svg width="2" height="2" viewBox="0 0 2 2" fill="none" xmlns="http://www.w3.org/2000/svg">
<path d="M1.12676 1.99166C0.995544 2.00876 0.862236 1.9995 0.734606 1.96451C0.606975 1.92951 0.487564 1.86948 0.383319 1.78782C0.279075 1.70615 0.192072 1.60453 0.127383 1.48887C0.0626949 1.37321 0.0216144 1.24578 0.00651689 1.11406C-0.0159321 0.918209 0.0199095 0.720082 0.109513 0.54457C0.199116 0.369057 0.338481 0.22404 0.510122 0.127663C0.681762 0.0312865 0.878025 -0.0121282 1.07421 0.00291522C1.27039 0.0179586 1.45774 0.0907538 1.61274 0.212178C1.76775 0.333602 1.88348 0.498256 1.94538 0.685386C2.00729 0.872517 2.01261 1.07376 1.96067 1.26391C1.90874 1.45406 1.80186 1.62465 1.65349 1.75412C1.50512 1.8836 1.32187 1.96623 1.12676 1.99166Z" fill="#425AC2"/>
</svg>
