<svg width="3" height="3" viewBox="0 0 3 3" fill="none" xmlns="http://www.w3.org/2000/svg">
<path d="M2.99994 1.49947C2.99994 1.79601 2.912 2.0859 2.74719 2.33247C2.58237 2.57903 2.34808 2.7712 2.074 2.88468C1.79992 2.99817 1.49825 3.02785 1.20729 2.97C0.916324 2.91215 0.649081 2.76936 0.439308 2.55967C0.229535 2.34998 0.0867148 2.08282 0.0288385 1.79198C-0.0290378 1.50113 0.000602519 1.19967 0.114131 0.925704C0.227659 0.651735 0.42001 0.417561 0.666677 0.252811C0.913345 0.0880611 1.20335 0.000123229 1.50002 0.000123229C1.6977 -0.00242681 1.89388 0.0346235 2.07702 0.10907C2.26015 0.183516 2.42649 0.293854 2.56629 0.433592C2.70608 0.57333 2.81653 0.739632 2.891 0.922692C2.96548 1.10575 3.00249 1.30187 2.99994 1.49947Z" fill="white"/>
</svg>
