<svg width="3" height="3" viewBox="0 0 3 3" fill="none" xmlns="http://www.w3.org/2000/svg">
<path d="M2.99982 1.48049C3.00357 1.77862 2.91832 2.07107 2.75495 2.32053C2.59159 2.56998 2.35754 2.7651 2.08269 2.88093C1.80785 2.99676 1.50476 3.02804 1.21204 2.97079C0.919313 2.91355 0.650213 2.77036 0.439302 2.55953C0.228392 2.34871 0.0851737 2.07984 0.027904 1.78723C-0.0293658 1.49463 0.00195734 1.1916 0.117832 0.916872C0.233707 0.64214 0.428936 0.408156 0.678493 0.244859C0.92805 0.0815613 1.22066 -0.00363175 1.5189 0.000118711C1.91168 0.000118711 2.28832 0.156082 2.56606 0.433706C2.8438 0.71133 2.99982 1.08787 2.99982 1.48049Z" fill="white"/>
</svg>
