<svg width="2" height="2" viewBox="0 0 2 2" fill="none" xmlns="http://www.w3.org/2000/svg">
<path d="M1.77661 1.59765C1.85685 1.49402 1.91584 1.37551 1.95013 1.24893C1.98443 1.12235 1.99337 0.990232 1.97644 0.860174C1.95951 0.730116 1.917 0.60469 1.85145 0.49116C1.7859 0.377631 1.69859 0.278219 1.5945 0.198684C1.48954 0.120139 1.37017 0.0630774 1.2432 0.0307585C1.11623 -0.00156034 0.984118 -0.00848664 0.854468 0.0103402C0.592629 0.0483627 0.356608 0.189044 0.198293 0.401443C0.0399774 0.613843 -0.0276278 0.88052 0.0103199 1.14288C0.0482676 1.40523 0.188672 1.64178 0.400654 1.80041C0.503677 1.8792 0.621353 1.93651 0.746835 1.96901C0.872317 2.00152 1.00307 2.00857 1.1313 1.98968C1.25953 1.97078 1.38265 1.92632 1.49348 1.859C1.60431 1.79168 1.70059 1.70282 1.77661 1.59765Z" fill="#425AC2"/>
</svg>
