<svg width="73" height="62" viewBox="0 0 73 62" fill="none" xmlns="http://www.w3.org/2000/svg">
<path d="M72.4435 53.8558L30.3906 62L2.65701 31.2947C1.86963 30.6448 1.22703 29.8367 0.77069 28.9226C0.314352 28.0085 0.0544368 27.0088 0.0076719 25.9878C-0.039093 24.9669 0.12833 23.9475 0.499186 22.9953C0.870042 22.0432 1.43607 21.1796 2.16073 20.4602L20.2898 2.19789C21.003 1.46767 21.8612 0.895267 22.8088 0.517668C23.7565 0.14007 24.7727 -0.0343588 25.7918 0.00559319C26.8109 0.0455452 27.8103 0.299022 28.7256 0.749655C29.6409 1.20029 30.4518 1.83805 31.1059 2.62188L72.4435 53.8558Z" fill="#0E24A5"/>
</svg>
