<svg width="2" height="2" viewBox="0 0 2 2" fill="none" xmlns="http://www.w3.org/2000/svg">
<path d="M0.614406 0.0742159C0.369767 0.176574 0.175731 0.372099 0.0749809 0.617804C-0.0257693 0.86351 -0.024949 1.13925 0.0772082 1.38437C0.179365 1.62949 0.374505 1.82391 0.619727 1.92486C0.864949 2.02581 1.14014 2.02505 1.38478 1.92269C1.50608 1.8739 1.61636 1.80111 1.70897 1.7087C1.80159 1.61629 1.87464 1.50614 1.92384 1.3848C1.97303 1.26347 1.99735 1.13346 1.9953 1.00251C1.99324 0.871567 1.96487 0.742362 1.9119 0.62264C1.8629 0.501068 1.79039 0.390366 1.69858 0.296945C1.60677 0.203524 1.49749 0.129208 1.37693 0.0782452C1.25637 0.0272829 1.12692 0.000712159 0.996069 1.41007e-05C0.865219 -0.000683958 0.735503 0.0245428 0.614406 0.0742159Z" fill="#425AC2"/>
</svg>
