<svg width="4" height="4" viewBox="0 0 4 4" fill="none" xmlns="http://www.w3.org/2000/svg">
<path d="M3.99316 1.98386C3.99635 2.3801 3.88197 2.76837 3.66452 3.09939C3.44708 3.43041 3.13641 3.68929 2.77187 3.84314C2.40733 3.997 2.00537 4.03888 1.61701 3.96354C1.22865 3.8882 0.871352 3.69903 0.590507 3.41998C0.309661 3.14092 0.117918 2.78455 0.0395635 2.39615C-0.0387906 2.00775 -0.000214274 1.60479 0.15042 1.23839C0.301055 0.871991 0.556951 0.558695 0.885633 0.338208C1.21432 0.117721 1.60098 1.28867e-05 1.99656 1.05895e-09C2.52332 -1.71577e-05 3.02873 0.208491 3.40271 0.580087C3.77669 0.951683 3.98892 1.45622 3.99316 1.98386Z" fill="#425AC2"/>
</svg>
