<svg width="18" height="16" viewBox="0 0 18 16" fill="none" xmlns="http://www.w3.org/2000/svg">
<path d="M7.75682 15.1835L0.379773 4.29122C0.171455 3.99087 0.0439265 3.64181 0.00947956 3.27772C-0.0249674 2.91362 0.034817 2.54678 0.1831 2.21257C0.331382 1.87837 0.563133 1.58806 0.856012 1.36969C1.14889 1.15132 1.49303 1.01226 1.85518 0.965885L14.9568 0.00519558C15.3297 -0.0208629 15.703 0.051421 16.0393 0.214833C16.3756 0.378246 16.6634 0.627086 16.8738 0.936568C17.0843 1.24605 17.2101 1.6054 17.2387 1.97876C17.2674 2.35211 17.1979 2.72645 17.0372 3.06452L11.3126 14.8879C11.1426 15.1983 10.8984 15.4616 10.602 15.6544C10.3056 15.8472 9.96615 15.9634 9.61396 15.9927C9.26177 16.022 8.90784 15.9634 8.58377 15.8222C8.25969 15.681 7.97558 15.4616 7.75682 15.1835Z" fill="#425AC2"/>
</svg>
