<svg width="3" height="3" viewBox="0 0 3 3" fill="none" xmlns="http://www.w3.org/2000/svg">
<path d="M2.9999 1.48044C3.00366 1.77777 2.91893 2.06953 2.75641 2.31859C2.59389 2.56765 2.36099 2.76279 2.08724 2.87919C1.8135 2.99559 1.51131 3.02801 1.21909 2.97231C0.926867 2.91662 0.657769 2.77533 0.44608 2.56641C0.234392 2.35749 0.0896915 2.09036 0.0302562 1.799C-0.0291791 1.50763 -0.00064701 1.20518 0.112308 0.930088C0.225264 0.654997 0.417463 0.419689 0.664539 0.254076C0.911615 0.0884635 1.20241 2.38289e-05 1.4999 4.81883e-09C1.89446 -3.15943e-05 2.27317 0.155344 2.55394 0.432448C2.83472 0.709552 2.9949 1.08606 2.9999 1.48044Z" fill="white"/>
</svg>
