<svg width="3" height="3" viewBox="0 0 3 3" fill="none" xmlns="http://www.w3.org/2000/svg">
<path d="M2.99984 1.48048C3.00359 1.7786 2.91834 2.07109 2.75497 2.32054C2.59161 2.57 2.35756 2.76509 2.08272 2.88091C1.80787 2.99674 1.50467 3.02802 1.21195 2.97077C0.919223 2.91353 0.65024 2.77037 0.43933 2.55955C0.22842 2.34872 0.0852024 2.07982 0.0279328 1.78722C-0.0293368 1.49462 0.00187032 1.1916 0.117745 0.916866C0.233619 0.642136 0.428848 0.408182 0.678404 0.244886C0.92796 0.0815897 1.22056 -0.00363177 1.51881 0.000118672C1.91159 0.000118672 2.28823 0.156081 2.56596 0.433703C2.8437 0.711325 2.99984 1.08786 2.99984 1.48048Z" fill="white"/>
</svg>
