<svg width="7" height="7" viewBox="0 0 7 7" fill="none" xmlns="http://www.w3.org/2000/svg">
<path d="M6.7462 4.77498C6.49261 5.42458 6.05109 5.98343 5.47829 6.37984C4.90548 6.77626 4.22751 6.99216 3.5314 6.99981C2.83529 7.00746 2.15279 6.80653 1.57144 6.4228C0.9901 6.03907 0.53645 5.49006 0.268698 4.84619C0.000947135 4.20232 -0.0686839 3.49295 0.06873 2.80915C0.206144 2.12535 0.544335 1.49829 1.03992 1.00842C1.5355 0.518549 2.16585 0.188199 2.85011 0.0598039C3.53437 -0.0685918 4.24132 0.0108158 4.88023 0.287805C5.71078 0.647877 6.36944 1.31686 6.7175 2.15386C7.06557 2.99085 7.07586 3.93053 6.7462 4.77498Z" fill="#FE958E"/>
</svg>
