<svg width="2" height="2" viewBox="0 0 2 2" fill="none" xmlns="http://www.w3.org/2000/svg">
<path d="M1.36441 1.91903C1.48186 1.87179 1.58864 1.80131 1.67832 1.71183C1.76799 1.62235 1.83873 1.51569 1.88637 1.39821C1.934 1.28072 1.95755 1.15484 1.95556 1.02804C1.95357 0.901251 1.9261 0.776144 1.87481 0.660219C1.83301 0.534005 1.76555 0.417825 1.67676 0.318986C1.58797 0.220146 1.47973 0.140799 1.35884 0.0859146C1.23795 0.0310297 1.10708 0.00180498 0.974369 8.10137e-05C0.84166 -0.00164296 0.710008 0.0241645 0.58774 0.0758907C0.465472 0.127617 0.35521 0.204119 0.263891 0.300619C0.172573 0.397118 0.102149 0.511544 0.0570982 0.63663C0.0120477 0.761716 -0.00666914 0.894752 0.00210503 1.02744C0.0108792 1.16013 0.0470105 1.28959 0.108138 1.40763C0.155282 1.52531 0.225567 1.63224 0.314871 1.72209C0.404175 1.81195 0.510624 1.88289 0.627876 1.93062C0.745128 1.97834 0.87077 2.00188 0.997313 1.99988C1.12386 1.99789 1.24872 1.97043 1.36441 1.91903Z" fill="#425AC2"/>
</svg>
