<svg width="7" height="7" viewBox="0 0 7 7" fill="none" xmlns="http://www.w3.org/2000/svg">
<path d="M6.98488 3.41068C7.00258 4.10451 6.81401 4.78797 6.4431 5.37415C6.0722 5.96033 5.5357 6.42276 4.90185 6.7027C4.26799 6.98264 3.56538 7.06743 2.88332 6.94628C2.20125 6.82514 1.57058 6.50353 1.07138 6.02234C0.57218 5.54116 0.226998 4.92211 0.0797874 4.2439C-0.067423 3.56569 -0.0100453 2.85895 0.244604 2.21349C0.499254 1.56803 0.939695 1.01301 1.50993 0.618966C2.08017 0.224925 2.75446 0.00965282 3.4471 0.000527919C4.36705 -0.015508 5.25584 0.334343 5.9189 0.973487C6.58197 1.61263 6.96528 2.48899 6.98488 3.41068Z" fill="#FE958E"/>
</svg>
