<svg width="7" height="7" viewBox="0 0 7 7" fill="none" xmlns="http://www.w3.org/2000/svg">
<path d="M6.98773 3.43796C6.99996 4.13006 6.807 4.81025 6.43334 5.39253C6.05967 5.97482 5.52208 6.43305 4.88845 6.70927C4.25483 6.98549 3.55366 7.06729 2.87362 6.94436C2.19357 6.82143 1.56519 6.49929 1.06791 6.01864C0.570632 5.53799 0.22681 4.92042 0.0798908 4.24403C-0.0670282 3.56765 -0.0104472 2.86281 0.242506 2.21865C0.495458 1.57448 0.933386 1.0199 1.50096 0.62505C2.06854 0.230196 2.74024 0.0127938 3.43115 0.00032449C4.35671 -0.0122656 5.24978 0.341954 5.91588 0.98579C6.58199 1.62963 6.96725 2.51096 6.98773 3.43796Z" fill="#FFC1C1"/>
</svg>
